<svg width="249" height="26" viewBox="0 0 249 26" fill="none" xmlns="http://www.w3.org/2000/svg">
<path d="M51.2363 7.42773H46.9688V19H43.541V7.42773H39.3516V4.78125H51.2363V7.42773ZM61.9098 12.9746H56.5191V16.3633H62.8863V19H53.0914V4.78125H62.9059V7.42773H56.5191V10.4258H61.9098V12.9746ZM76.1867 14.1855C76.1411 15.1751 75.8742 16.0508 75.3859 16.8125C74.8977 17.5677 74.2108 18.1536 73.3254 18.5703C72.4465 18.987 71.4406 19.1953 70.3078 19.1953C68.4393 19.1953 66.968 18.5866 65.8937 17.3691C64.8195 16.1517 64.2824 14.4329 64.2824 12.2129V11.5098C64.2824 10.1165 64.5233 8.89909 65.0051 7.85742C65.4934 6.80924 66.1932 6.00195 67.1047 5.43555C68.0161 4.86263 69.0708 4.57617 70.2687 4.57617C71.994 4.57617 73.3807 5.0319 74.4289 5.94336C75.4771 6.84831 76.0728 8.09831 76.216 9.69336H72.798C72.772 8.82747 72.5539 8.20573 72.1437 7.82812C71.7336 7.45052 71.1086 7.26172 70.2687 7.26172C69.4159 7.26172 68.7909 7.58073 68.3937 8.21875C67.9966 8.85677 67.7883 9.87565 67.7687 11.2754V12.2812C67.7687 13.7982 67.9576 14.8822 68.3352 15.5332C68.7193 16.1842 69.3768 16.5098 70.3078 16.5098C71.0956 16.5098 71.6978 16.3242 72.1145 15.9531C72.5311 15.582 72.7525 14.9928 72.7785 14.1855H76.1867ZM90.0926 19H86.6844V13.0625H81.6355V19H78.2078V4.78125H81.6355V10.4258H86.6844V4.78125H90.0926V19ZM108.627 7.42773H104.359V19H100.932V7.42773H96.7422V4.78125H108.627V7.42773ZM122.25 12.1836C122.25 13.5703 121.992 14.7975 121.478 15.8652C120.964 16.9329 120.231 17.7565 119.281 18.3359C118.337 18.9089 117.259 19.1953 116.048 19.1953C114.838 19.1953 113.763 18.9186 112.826 18.3652C111.888 17.8053 111.156 17.0078 110.629 15.9727C110.108 14.9375 109.834 13.7493 109.808 12.4082V11.6074C109.808 10.2142 110.062 8.98698 110.57 7.92578C111.084 6.85807 111.817 6.03451 112.767 5.45508C113.724 4.87565 114.811 4.58594 116.029 4.58594C117.233 4.58594 118.308 4.8724 119.252 5.44531C120.196 6.01823 120.928 6.83529 121.449 7.89648C121.976 8.95117 122.243 10.1621 122.25 11.5293V12.1836ZM118.763 11.5879C118.763 10.1751 118.526 9.10417 118.05 8.375C117.582 7.63932 116.908 7.27148 116.029 7.27148C114.31 7.27148 113.402 8.56055 113.304 11.1387L113.295 12.1836C113.295 13.5768 113.526 14.6478 113.988 15.3965C114.45 16.1452 115.137 16.5195 116.048 16.5195C116.914 16.5195 117.582 16.1517 118.05 15.416C118.519 14.6803 118.757 13.6224 118.763 12.2422V11.5879ZM140.374 7.42773H136.106V19H132.679V7.42773H128.489V4.78125H140.374V7.42773ZM154.114 19H150.705V13.0625H145.657V19H142.229V4.78125H145.657V10.4258H150.705V4.78125H154.114V19ZM165.51 12.9746H160.119V16.3633H166.486V19H156.691V4.78125H166.506V7.42773H160.119V10.4258H165.51V12.9746ZM178.946 13.9805H177.091V19H173.663V4.78125H179.259C180.945 4.78125 182.264 5.1556 183.214 5.9043C184.165 6.65299 184.64 7.71094 184.64 9.07812C184.64 10.0677 184.438 10.888 184.034 11.5391C183.637 12.1901 183.012 12.7174 182.159 13.1211L185.128 18.8535V19H181.456L178.946 13.9805ZM177.091 11.334H179.259C179.91 11.334 180.398 11.1647 180.724 10.8262C181.056 10.4811 181.222 10.0026 181.222 9.39062C181.222 8.77865 181.056 8.30013 180.724 7.95508C180.392 7.60352 179.904 7.42773 179.259 7.42773H177.091V11.334ZM195.929 12.9746H190.538V16.3633H196.905V19H187.11V4.78125H196.925V7.42773H190.538V10.4258H195.929V12.9746ZM206.036 15.2207C206.036 14.7194 205.857 14.3288 205.498 14.0488C205.147 13.7689 204.525 13.4792 203.633 13.1797C202.741 12.8802 202.012 12.5905 201.446 12.3105C199.603 11.4056 198.682 10.1621 198.682 8.58008C198.682 7.79232 198.91 7.09896 199.366 6.5C199.828 5.89453 200.479 5.42578 201.319 5.09375C202.159 4.75521 203.103 4.58594 204.151 4.58594C205.173 4.58594 206.088 4.76823 206.895 5.13281C207.709 5.4974 208.34 6.01823 208.789 6.69531C209.239 7.36589 209.463 8.13411 209.463 9H206.045C206.045 8.42057 205.866 7.97135 205.508 7.65234C205.157 7.33333 204.678 7.17383 204.073 7.17383C203.461 7.17383 202.976 7.31055 202.618 7.58398C202.266 7.85091 202.09 8.19271 202.09 8.60938C202.09 8.97396 202.286 9.30599 202.676 9.60547C203.067 9.89844 203.754 10.2044 204.737 10.5234C205.72 10.8359 206.527 11.1745 207.159 11.5391C208.695 12.4245 209.463 13.6452 209.463 15.2012C209.463 16.4447 208.995 17.4212 208.057 18.1309C207.12 18.8405 205.834 19.1953 204.2 19.1953C203.047 19.1953 202.002 18.9902 201.065 18.5801C200.134 18.1634 199.431 17.597 198.955 16.8809C198.487 16.1582 198.252 15.3281 198.252 14.3906H201.69C201.69 15.1523 201.885 15.7155 202.276 16.0801C202.673 16.4382 203.314 16.6172 204.2 16.6172C204.766 16.6172 205.212 16.4967 205.538 16.2559C205.87 16.0085 206.036 15.6634 206.036 15.2207ZM223.125 14.1855C223.079 15.1751 222.812 16.0508 222.324 16.8125C221.836 17.5677 221.149 18.1536 220.264 18.5703C219.385 18.987 218.379 19.1953 217.246 19.1953C215.378 19.1953 213.906 18.5866 212.832 17.3691C211.758 16.1517 211.221 14.4329 211.221 12.2129V11.5098C211.221 10.1165 211.462 8.89909 211.943 7.85742C212.432 6.80924 213.132 6.00195 214.043 5.43555C214.954 4.86263 216.009 4.57617 217.207 4.57617C218.932 4.57617 220.319 5.0319 221.367 5.94336C222.415 6.84831 223.011 8.09831 223.154 9.69336H219.736C219.71 8.82747 219.492 8.20573 219.082 7.82812C218.672 7.45052 218.047 7.26172 217.207 7.26172C216.354 7.26172 215.729 7.58073 215.332 8.21875C214.935 8.85677 214.727 9.87565 214.707 11.2754V12.2812C214.707 13.7982 214.896 14.8822 215.273 15.5332C215.658 16.1842 216.315 16.5098 217.246 16.5098C218.034 16.5098 218.636 16.3242 219.053 15.9531C219.469 15.582 219.691 14.9928 219.717 14.1855H223.125ZM236.298 4.78125V14.0879C236.298 15.1426 236.074 16.0573 235.625 16.832C235.175 17.6003 234.531 18.1862 233.691 18.5898C232.851 18.9935 231.858 19.1953 230.712 19.1953C228.981 19.1953 227.617 18.7461 226.621 17.8477C225.625 16.9492 225.117 15.7188 225.097 14.1562V4.78125H228.545V14.2246C228.584 15.7806 229.306 16.5586 230.712 16.5586C231.422 16.5586 231.959 16.3633 232.324 15.9727C232.688 15.582 232.871 14.9473 232.871 14.0684V4.78125H236.298ZM247.665 12.9746H242.275V16.3633H248.642V19H238.847V4.78125H248.661V7.42773H242.275V10.4258H247.665V12.9746Z" fill="#333333"/>
<path d="M23.2042 4.94408C22.8883 4.54391 22.5513 4.18588 22.1933 3.80677C21.8352 3.42765 21.4561 3.11176 21.056 2.79584C16.3593 -0.931945 9.64076 -0.931945 4.94409 2.79584C4.54392 3.11176 4.18589 3.44874 3.80678 3.80677C3.44874 4.1648 3.11177 4.54391 2.79584 4.94408C-0.931947 9.64074 -0.931947 16.3593 2.79584 21.0559C3.11177 21.4561 3.42769 21.8141 3.80678 22.1932C4.16481 22.5513 4.54392 22.8882 4.92301 23.2042C9.61968 26.9319 16.3382 26.9319 21.0559 23.2042C21.4561 22.8882 21.8141 22.5513 22.1932 22.1932C22.5513 21.8352 22.8882 21.4561 23.2042 21.0559C26.9319 16.3593 26.9319 9.66177 23.2042 4.94408H23.2042ZM21.1823 21.1821C20.8454 21.5191 20.5084 21.8139 20.1504 22.1088L17.3281 18.8021C14.7797 20.7186 11.2415 20.7186 8.6931 18.8021L5.89186 22.0877C5.53383 21.814 5.1758 21.498 4.85987 21.1611C4.52289 20.8241 4.22803 20.4871 3.93318 20.1291L7.21886 17.3278C5.30229 14.7795 5.32337 11.2412 7.21886 8.69286L3.91216 5.89163C4.18594 5.5336 4.50187 5.17557 4.83885 4.85965C5.17582 4.52267 5.5128 4.2278 5.89189 3.93296L8.69312 7.23965C11.2415 5.32309 14.7798 5.32309 17.3281 7.23965L20.1294 3.95399C20.4874 4.22777 20.8454 4.5437 21.1824 4.88068C21.5194 5.21765 21.8142 5.55463 22.1091 5.91266L18.8024 8.69259C20.719 11.241 20.719 14.7792 18.8024 17.3276L22.0881 20.1288C21.8143 20.4868 21.5194 20.8449 21.1824 21.1818L21.1823 21.1821Z" fill="#5568D9"/>
</svg>
