<svg width="372" height="387" viewBox="0 0 372 387" fill="none" xmlns="http://www.w3.org/2000/svg">
<path d="M157.385 0V29.7692H171.692V45.5841C142.936 48.5424 116.914 60.0707 95.6827 78.1442L84.9519 66.9808L94.7885 56.7476L74.6683 35.8161L34.4279 77.6791L54.5481 98.6106L64.3846 88.3774L75.1154 99.5409C57.7423 121.628 46.6609 148.699 43.8173 178.615H28.6154V163.731H0V223.269H28.6154V208.385H43.8173C46.6831 238.534 57.9603 265.748 75.5625 287.924L64.3846 298.623L54.5481 288.389L34.4279 309.321L74.6683 351.184L94.7885 330.252L84.9519 320.019L95.6827 308.391C116.951 326.566 142.84 338.448 171.692 341.416V357.231H157.385V387H214.615V357.231H200.308V341.416C229.16 338.448 255.049 326.566 276.317 308.391H276.764L287.048 320.019L277.212 330.252L297.332 351.184L337.572 309.321L317.452 288.389L307.615 298.623L296.438 287.924C296.515 287.826 296.36 287.557 296.438 287.459C313.909 265.334 325.33 238.401 328.183 208.385H343.385V223.269H372V163.731H343.385V178.615H328.183C325.339 148.699 314.258 121.628 296.885 99.5409L307.615 88.3774L317.452 98.6106L337.572 77.6791L297.332 35.8161L277.212 56.7476L287.048 66.9808L276.317 78.1442C255.086 60.0707 229.064 48.5424 200.308 45.5841V29.7692H214.615V0H157.385ZM186 74.4231C249.385 74.4231 300.462 127.559 300.462 193.5C300.462 259.441 249.385 312.577 186 312.577C122.615 312.577 71.5385 259.441 71.5385 193.5C71.5385 127.559 122.615 74.4231 186 74.4231ZM150.231 106.518C138.378 106.518 128.769 116.514 128.769 128.845C128.769 141.176 138.378 151.172 150.231 151.172C162.084 151.172 171.692 141.176 171.692 128.845C171.692 116.514 162.084 106.518 150.231 106.518ZM221.769 106.518C209.916 106.518 200.308 116.514 200.308 128.845C200.308 141.176 209.916 151.172 221.769 151.172C233.622 151.172 243.231 141.176 243.231 128.845C243.231 116.514 233.622 106.518 221.769 106.518ZM114.462 171.173C102.609 171.173 93 181.169 93 193.5C93 205.831 102.609 215.827 114.462 215.827C126.314 215.827 135.923 205.831 135.923 193.5C135.923 181.169 126.314 171.173 114.462 171.173ZM186 171.173C174.147 171.173 164.538 181.169 164.538 193.5C164.538 205.831 174.147 215.827 186 215.827C197.853 215.827 207.462 205.831 207.462 193.5C207.462 181.169 197.853 171.173 186 171.173ZM257.538 171.173C245.686 171.173 236.077 181.169 236.077 193.5C236.077 205.831 245.686 215.827 257.538 215.827C269.391 215.827 279 205.831 279 193.5C279 181.169 269.391 171.173 257.538 171.173ZM150.231 235.828C138.378 235.828 128.769 245.824 128.769 258.155C128.769 270.486 138.378 280.482 150.231 280.482C162.084 280.482 171.692 270.486 171.692 258.155C171.692 245.824 162.084 235.828 150.231 235.828ZM221.769 235.828C209.916 235.828 200.308 245.824 200.308 258.155C200.308 270.486 209.916 280.482 221.769 280.482C233.622 280.482 243.231 270.486 243.231 258.155C243.231 245.824 233.622 235.828 221.769 235.828Z" fill="#5568D9" fill-opacity="0.2"/>
</svg>
