<svg width="173" height="290" viewBox="0 0 173 290" fill="none" xmlns="http://www.w3.org/2000/svg">
<path opacity="0.3" d="M257.39 133.846V124.39H275.303V165.61H257.39V156.154V154.456H255.692H244.373H242.828L242.683 155.994C240.59 178.152 232.214 198.028 219.399 214.361C219.187 214.631 219.094 214.911 219.054 215.116C219.052 215.13 219.049 215.143 219.047 215.156L218.45 215.913L219.557 216.98L227.88 224.997L229.108 226.179L230.285 224.946L236.382 218.563L249.017 231.791L221.4 260.704L208.766 247.476L214.97 240.98L216.044 239.855L215.018 238.687L207.36 229.973L206.853 229.396H206.085H205.752H205.123L204.646 229.807C189.052 243.218 170.094 251.967 148.979 254.153L147.456 254.311V255.841V267.692V269.39H149.154H158.11V288.303H118.89V269.39H127.846H129.544V267.692V255.841V254.311L128.021 254.153C106.906 251.967 87.9482 243.218 72.3544 229.807L71.1078 228.735L69.9965 229.947L62.0061 238.66L60.9325 239.831L62.0297 240.98L68.2344 247.476L55.5998 260.704L27.9832 231.791L40.6178 218.563L46.7148 224.946L47.8922 226.179L49.1199 224.997L57.4432 216.98L58.5505 215.913L57.5984 214.706C44.6939 198.345 36.4205 178.262 34.3173 155.994L34.1721 154.456H32.6274H21.3077H19.6103V156.154V165.61H1.69743V124.39H19.6103V133.846V135.544H21.3077H32.6274H34.1721L34.3173 134.006C36.4045 111.908 44.535 91.9301 57.2701 75.6367L58.1739 74.4803L57.1602 73.4189L49.1698 65.0535L47.9423 63.7685L46.7148 65.0535L40.6178 71.4367L27.9832 58.2091L55.5998 29.2964L68.2344 42.524L62.0297 49.0199L60.9099 50.1923L62.0297 51.3647L70.0201 59.7301L71.1308 60.8929L72.3519 59.8468C87.907 46.5209 106.962 38.0272 128.021 35.8471L129.544 35.6894V34.1587V22.3077V20.6103H127.846H118.89V1.69743H158.11V20.6103H149.154H147.456V22.3077V34.1587V35.6894L148.979 35.8471C170.038 38.0272 189.093 46.5209 204.648 59.8468L205.869 60.8929L206.98 59.7301L214.97 51.3647L216.09 50.1923L214.97 49.0199L208.766 42.524L221.4 29.2964L249.017 58.2091L236.382 71.4367L230.285 65.0535L229.058 63.7685L227.83 65.0535L219.84 73.4189L218.826 74.4803L219.73 75.6367C232.465 91.9301 240.596 111.908 242.683 134.006L242.828 135.544H244.373H255.692H257.39V133.846ZM225.428 145C225.428 94.7238 186.708 54.0718 138.5 54.0718C90.2922 54.0718 51.5718 94.7238 51.5718 145C51.5718 195.276 90.2922 235.928 138.5 235.928C186.708 235.928 225.428 195.276 225.428 145ZM97.582 96.5505C97.582 88.1736 104.049 81.5171 111.865 81.5171C119.681 81.5171 126.149 88.1736 126.149 96.5505C126.149 104.927 119.681 111.584 111.865 111.584C104.049 111.584 97.582 104.927 97.582 96.5505ZM150.851 96.5505C150.851 88.1736 157.319 81.5171 165.135 81.5171C172.951 81.5171 179.418 88.1736 179.418 96.5505C179.418 104.927 172.951 111.584 165.135 111.584C157.319 111.584 150.851 104.927 150.851 96.5505ZM70.9474 145C70.9474 136.623 77.4148 129.967 85.2308 129.967C93.0467 129.967 99.5141 136.623 99.5141 145C99.5141 153.377 93.0467 160.033 85.2308 160.033C77.4148 160.033 70.9474 153.377 70.9474 145ZM124.217 145C124.217 136.623 130.684 129.967 138.5 129.967C146.316 129.967 152.783 136.623 152.783 145C152.783 153.377 146.316 160.033 138.5 160.033C130.684 160.033 124.217 153.377 124.217 145ZM177.486 145C177.486 136.623 183.953 129.967 191.769 129.967C199.585 129.967 206.053 136.623 206.053 145C206.053 153.377 199.585 160.033 191.769 160.033C183.953 160.033 177.486 153.377 177.486 145ZM97.582 193.45C97.582 185.073 104.049 178.416 111.865 178.416C119.681 178.416 126.149 185.073 126.149 193.45C126.149 201.826 119.681 208.483 111.865 208.483C104.049 208.483 97.582 201.826 97.582 193.45ZM150.851 193.45C150.851 185.073 157.319 178.416 165.135 178.416C172.951 178.416 179.418 185.073 179.418 193.45C179.418 201.826 172.951 208.483 165.135 208.483C157.319 208.483 150.851 201.826 150.851 193.45Z" stroke="#5568D9" stroke-width="3.39486"/>
</svg>
